<svg width="32" height="32" viewBox="0 0 32 32" fill="none" xmlns="http://www.w3.org/2000/svg">
  <!-- Background Circle -->
  <circle cx="16" cy="16" r="16" fill="url(#gradient1)"/>
  
  <!-- House/Building Icon -->
  <path d="M8 22V14L16 8L24 14V22H8Z" fill="white" stroke="white" stroke-width="1.5"/>
  
  <!-- Door -->
  <rect x="14" y="16" width="4" height="6" fill="url(#gradient2)"/>
  
  <!-- Windows -->
  <rect x="10" y="12" width="3" height="3" fill="white" rx="0.5"/>
  <rect x="19" y="12" width="3" height="3" fill="white" rx="0.5"/>
  
  <!-- Investment/Chart Line -->
  <path d="M6 26L10 24L14 25L18 23L22 24L26 22" stroke="white" stroke-width="2" stroke-linecap="round" stroke-linejoin="round"/>
  
  <!-- Investment Dots -->
  <circle cx="10" cy="24" r="1.5" fill="white"/>
  <circle cx="14" cy="25" r="1.5" fill="white"/>
  <circle cx="18" cy="23" r="1.5" fill="white"/>
  <circle cx="22" cy="24" r="1.5" fill="white"/>
  <circle cx="26" cy="22" r="1.5" fill="white"/>
  
  <!-- Gradients -->
  <defs>
    <linearGradient id="gradient1" x1="0%" y1="0%" x2="100%" y2="100%">
      <stop offset="0%" style="stop-color:#3B82F6;stop-opacity:1" />
      <stop offset="100%" style="stop-color:#1E40AF;stop-opacity:1" />
    </linearGradient>
    <linearGradient id="gradient2" x1="0%" y1="0%" x2="100%" y2="100%">
      <stop offset="0%" style="stop-color:#10B981;stop-opacity:1" />
      <stop offset="100%" style="stop-color:#059669;stop-opacity:1" />
    </linearGradient>
  </defs>
</svg>
